<?xml version="1.0" encoding="UTF-8" standalone="no"?>
<!-- Created with Inkscape (http://www.inkscape.org/) -->

<svg
   width="29.814716mm"
   height="69.541504mm"
   viewBox="0 0 29.814716 69.541504"
   version="1.1"
   id="svg1"
   xmlns:inkscape="http://www.inkscape.org/namespaces/inkscape"
   xmlns:sodipodi="http://sodipodi.sourceforge.net/DTD/sodipodi-0.dtd"
   xmlns="http://www.w3.org/2000/svg"
   xmlns:svg="http://www.w3.org/2000/svg">
  <sodipodi:namedview
     id="namedview1"
     pagecolor="#ffffff"
     bordercolor="#666666"
     borderopacity="1.0"
     inkscape:showpageshadow="2"
     inkscape:pageopacity="0.0"
     inkscape:pagecheckerboard="0"
     inkscape:deskcolor="#d1d1d1"
     inkscape:document-units="mm" />
  <defs
     id="defs1" />
  <g
     inkscape:label="Layer 1"
     inkscape:groupmode="layer"
     id="layer1"
     transform="translate(-118.16809,-81.184232)">
    <path
       id="rect134"
       style="fill:#ffc986;fill-opacity:1;stroke:#303332;stroke-width:0.661458;stroke-dasharray:none;stroke-opacity:1"
       d="m 133.0757,81.514962 c -1.97967,-1e-4 -2.87969,1.093515 -2.77916,1.760617 l -0.009,54.876751 h 5.57641 l -0.009,-54.876751 c 0.10049,-0.666985 -0.79916,-1.760498 -2.77864,-1.760617 z"
       sodipodi:nodetypes="sccccss" />
    <path
       id="path135"
       style="fill:#ff5339;fill-opacity:1;stroke:#303332;stroke-width:0.661458;stroke-dasharray:none;stroke-opacity:1"
       d="m 133.0757,137.17203 c -7.21636,-5e-5 -13.06641,5.75899 -13.06638,10.25209 -0.83439,1.3e-4 -1.51068,0.66531 -1.51051,1.4857 1.2e-4,0.82018 0.67632,1.48505 1.51051,1.48518 h 26.13225 c 0.83418,-1.3e-4 1.51039,-0.665 1.5105,-1.48518 1.8e-4,-0.82039 -0.67611,-1.48557 -1.5105,-1.4857 3e-5,-4.49298 -5.84971,-10.25197 -13.06587,-10.25209 z"
       sodipodi:nodetypes="cccccccc"
       inkscape:export-filename="Plunger.svg"
       inkscape:export-xdpi="150"
       inkscape:export-ydpi="150" />
  </g>
</svg>
