<?xml version="1.0" encoding="UTF-8" standalone="no"?>
<svg
   version="1.0"
   viewBox="0 0 1024 1024"
   id="svg128"
   width="1024"
   height="1024"
   xmlns="http://www.w3.org/2000/svg"
   xmlns:svg="http://www.w3.org/2000/svg">
  <defs
     id="defs128" />
  <g
     id="g132"
     style="display:inline"
  >
    <path
       style="display:inline;fill:#7cb8b7;fill-opacity:1;stroke:none;stroke-width:1px;stroke-linecap:butt;stroke-linejoin:miter;stroke-opacity:1"
       d="M 0,877.33008 107.64,775.73995 1024,775.85547 V 817.12 L 107.64,816.90184 0,941.53906 Z"
       id="path132"
    />
    <path
       style="display:inline;fill:#8acfca;fill-opacity:1;stroke:none;stroke-width:1px;stroke-linecap:butt;stroke-linejoin:miter;stroke-opacity:1"
       d="M 0,877.33008 107.64,775.73995 1024,775.85547 V 0 H 0 Z"
       id="path133"
    />
    <path
       style="fill:#dbdbdb;fill-opacity:1;stroke:none;stroke-width:1px;stroke-linecap:butt;stroke-linejoin:miter;stroke-opacity:1"
       d="M 0,941.53906 107.64,816.90184 1024,817.12 V 1024 H 0 Z"
       id="path134"
    />
    <path
       style="fill:none;stroke:#407473;stroke-width:5.9;stroke-linecap:butt;stroke-linejoin:miter;stroke-dasharray:none;stroke-opacity:1"
       d="M 0,877.33008 107.64,775.73995 1024,775.85547"
       id="path129"
    />
    <path
       style="fill:none;stroke:#407473;stroke-width:5.9;stroke-linecap:butt;stroke-linejoin:miter;stroke-dasharray:none;stroke-opacity:1"
       d="M 0,941.53906 107.64,816.90184 1024,817.12"
       id="path130"
    />
    <path
       style="fill:none;stroke:#407473;stroke-width:5.9;stroke-linecap:butt;stroke-linejoin:miter;stroke-dasharray:none;stroke-opacity:1"
       d="M 107.64,816.90184 107.20507,0"
       id="path131"
    />
  </g>
  <path
     fill="#303332"
     d="m 880.44,100.72 12.55,1.47 a 0.16,0.16 0 0 1 0,0.31 l -11.7,1.2 -130.6,-0.05 a 0.55,0.54 0 0 0 -0.55,0.54 v 54.92 a 0.52,0.52 0 0 0 0.52,0.52 h 197.01 a 0.53,0.54 0 0 0 0.53,-0.54 l 0.03,-45.02 c 1.72,-1.01 2.57,1.12 2.56,2.41 q -0.1,17.63 0.16,34.73 l -0.03,213.46 a 1.51,1.51 0 0 1 -1.51,1.51 l -194.95,0.01 -6.01,-0.06 a 1.09,1.09 0 0 1 -1.08,-1.09 V 102.03 a 1.27,1.27 0 0 1 1.27,-1.27 h 79.46 a 0.51,0.5 86.9 0 0 0.5,-0.56 c -1.27,-12.04 8.01,-24.14 20.26,-24.1 13.18,0.04 21.86,11.09 21.07,24.08 a 0.59,0.59 0 0 0 0.59,0.63 z"
     id="path56" />
  <path
     fill="#cad5d9"
     d="m 849.27,79 q 3.65,0 6.27,1.16 12.72,5.61 11.62,19.95 a 0.72,0.72 0 0 1 -0.67,0.66 l -2.63,0.15 a 0.62,0.63 1.9 0 1 -0.65,-0.7 q 1.19,-9.27 -6.39,-14.39 a 2.36,2.28 6.1 0 1 -0.83,-0.99 q -2.14,-4.88 -6.72,-4.88 -4.58,0 -6.71,4.89 a 2.28,2.36 83.8 0 1 -0.82,1 q -7.57,5.13 -6.36,14.4 a 0.63,0.62 87.9 0 1 -0.65,0.7 l -2.63,-0.15 a 0.72,0.72 0 0 1 -0.67,-0.65 q -1.13,-14.34 11.58,-19.98 2.61,-1.16 6.26,-1.17 z"
     id="path57" />
  <circle
     fill="#cad5d9"
     cx="849.33002"
     cy="86.360001"
     r="3.6600001"
     id="circle57" />
  <path
     fill="#8acfca"
     d="m 849.32,92.65 c 2.98,0 4.99,-1.25 6.08,-4.01 a 0.35,0.36 29.3 0 1 0.54,-0.16 q 5.47,4.14 4.59,11.41 a 1.08,1.07 2.4 0 1 -1.03,0.94 q -0.66,0.03 -10.17,0.04 -9.5,0.01 -10.17,-0.01 a 1.07,1.08 87.4 0 1 -1.03,-0.94 q -0.9,-7.27 4.56,-11.42 a 0.36,0.35 60.5 0 1 0.55,0.15 c 1.09,2.76 3.11,4.01 6.08,4 z"
     id="path58" />
  <path
     fill="#2c4e56"
     d="m 951.09,108.53 -0.14,42.68 q -0.26,-17.1 -0.16,-34.73 c 0.01,-1.29 -0.84,-3.42 -2.56,-2.41 l 0.02,-9.66 a 0.71,0.72 0 0 0 -0.71,-0.72 l -66.25,0.01 11.7,-1.2 a 0.16,0.16 0 0 0 0,-0.31 l -12.55,-1.47 69.01,0.05 a 1.62,1.62 0 0 1 1.62,1.61 z"
     id="path59" />
  <path
     fill="#b0d5e7"
     d="m 881.29,103.7 66.25,-0.01 a 0.71,0.72 0 0 1 0.71,0.72 l -0.02,9.66 -0.03,45.02 a 0.53,0.54 0 0 1 -0.53,0.54 H 750.66 a 0.52,0.52 0 0 1 -0.52,-0.52 v -54.92 a 0.55,0.54 0 0 1 0.55,-0.54 z"
     id="path60" />
  <path
     fill="#7cb8b7"
     d="m 754.46,366.19 194.95,-0.01 a 1.51,1.51 0 0 0 1.51,-1.51 l 0.03,-213.46 0.14,-42.68 4.88,0.07 a 1.25,1.25 0 0 1 1.23,1.25 v 261.69 a 1.08,1.08 0 0 1 -1.07,1.08 c -25.42,0.16 -47.71,-0.41 -71.04,-0.13 -22.61,0.26 -53.51,-0.33 -75.5,-0.15 -26.8,0.22 -41.06,0.95 -52.82,-0.59 a 1.35,1.34 86.4 0 1 -1.12,-0.99 z"
     id="path61" />
  <path
     fill="#e8f7fc"
     d="m 948.3,362.83 a 0.58,0.58 0 0 1 -0.58,0.58 H 750.74 a 0.58,0.58 0 0 1 -0.58,-0.58 V 162.89 a 0.58,0.58 0 0 1 0.58,-0.58 h 196.98 a 0.58,0.58 0 0 1 0.58,0.58 z"
     id="path62" />
  <path
     fill="#303332"
     d="m 622.02,774.15 -2.38,3.3 q -11.53,15.67 -26.1,26.61 -2.9,2.18 -8.95,5.9 -4.48,2.75 -9.05,5.74 -0.1,1.96 0.32,2.78 6.41,40.45 13.06,80.7 c 1,6.03 1.12,10.17 -2.83,14.46 -4.92,5.35 -13.13,8.68 -19.89,10.83 -23.4,7.43 -50.48,9.44 -75.17,6.74 q -20.39,-2.23 -35.43,-7.53 c -6.84,-2.41 -13.32,-5.22 -17.94,-10.58 q -3.76,-4.34 -2.81,-10.39 6.59,-42.14 13.46,-84.39 0.7,-0.48 0.32,-2.34 -3.89,-2.78 -7.82,-5.13 c -14.33,-8.62 -26.7,-20.54 -36.72,-33.81 q -0.81,-1.73 -1.53,-2.37 c -8.31,-12.93 -14.1,-24.79 -18.18,-38.76 q -0.73,-2.51 -1.83,-5.92 a 3.06,3.07 11.7 0 0 -0.9,-1.37 c -8.37,-7.39 -10.1,-15.14 -9.98,-26.63 q 0.14,-13.39 0.21,-25.87 c 0.1,-19.59 24.1,-31.14 38.65,-38.38 a 0.67,0.68 4 0 0 0.26,-0.23 l 12.23,-17.49 a 0.38,0.39 17.8 0 0 -0.31,-0.61 q -6.87,0 -20.35,0.16 c -8.7,0.1 -16.14,-1.08 -21.66,-6.72 q -5.16,-5.25 -5.65,-12.86 -1.5,-23.19 -9.77,-145 a 0.86,0.87 1.6 0 0 -0.75,-0.8 c -3.53,-0.47 -7.9,-0.45 -11.98,-1.4 -3.82,-0.89 -6.26,-4.35 -5.62,-8.09 0.76,-4.37 3.71,-6.03 8.13,-6.34 q 3.12,-0.23 8.53,-0.45 a 0.52,0.52 0 0 0 0.5,-0.55 l -1.07,-18.74 a 0.73,0.74 4.9 0 0 -0.55,-0.66 q -0.11,-0.03 -4.44,-0.04 -5.05,-0.02 -6.35,-4.47 a 3.22,3.3 35.4 0 1 -0.13,-0.84 q -0.04,-3.89 0.26,-8.86 0.98,-15.76 16.95,-15.97 38.17,-0.49 65.62,-1.06 a 1.07,1.11 20.9 0 0 0.79,-0.37 c 25.71,-29.81 63.98,-45.4 102.12,-34.09 21.22,6.29 37.54,17.95 51.73,34.08 a 1.14,1.12 69.4 0 0 0.82,0.38 q 40.39,0.89 62.15,1 8.65,0.04 11.79,1.66 c 8.82,4.53 8.93,13.98 8.63,22.86 -0.22,6.47 -6.29,5.63 -10.73,5.61 a 0.77,0.77 0 0 0 -0.77,0.8 q 0.12,2.84 -0.17,7.16 -2.02,30.7 -11.51,172.46 -1,14.96 -13.98,19.75 -4.42,1.62 -12.64,1.46 -10.85,-0.22 -21.04,0 A 0.34,0.34 0 0 0 601.3,620 l 11.37,16.77 a 4.33,4.42 85 0 0 1.92,1.58 q 12.17,5.15 21.57,12.41 c 9.33,7.2 16.08,14.46 16.1,26.23 q 0.02,12.16 0.25,23.25 c 0.23,10.62 -1.03,20.82 -9.58,27.75 a 5.19,5.16 77.4 0 0 -1.79,2.84 q -5.27,22.2 -19.12,43.32 z"
     id="path83" />
  <path
     fill="#cad5d9"
     d="m 512.21,351.41 c 28.39,0.02 54.98,14.39 73.45,35.52 q 27.41,31.37 37,72.79 c 11.84,51.2 4.91,106.12 -26.26,149.15 -3.89,5.38 -8.94,9.62 -15.67,9.54 q -2.62,-0.03 -7.39,0.12 a 0.86,0.87 80.2 0 1 -0.85,-0.59 q -1.77,-5.55 -9.24,-5.54 -25.9,0.05 -51.23,0.03 -25.33,-0.02 -51.24,-0.1 -7.47,-0.02 -9.25,5.52 a 0.87,0.86 9.9 0 1 -0.85,0.59 q -4.77,-0.16 -7.39,-0.13 c -6.73,0.07 -11.77,-4.18 -15.65,-9.56 -31.11,-43.08 -37.96,-98.01 -26.05,-149.19 q 9.65,-41.41 37.11,-72.73 c 18.5,-21.11 45.11,-35.44 73.51,-35.42 z"
     id="path84" />
  <path
     fill="#e8f7fc"
     d="m 592.82,389.8 q 5.7,-0.2 7.72,-0.15 34.39,0.86 51.54,1.03 8.42,0.07 11.14,1.62 c 6.73,3.82 6.36,11.76 6.35,19.22 q -0.01,3.56 -2.77,3.56 -12.82,0.07 -57.52,-0.09 a 0.62,0.65 75.9 0 1 -0.56,-0.32 q -6.92,-12.3 -16.18,-24.29 a 0.36,0.36 0 0 1 0.28,-0.58 z"
     id="path85" />
  <path
     fill="#e8f7fc"
     d="m 431.78,390.35 q -9.3,12.03 -16.25,24.36 a 0.65,0.63 14.1 0 1 -0.56,0.32 q -44.85,0.13 -57.71,0.06 -2.77,-0.01 -2.78,-3.58 c 0,-7.48 -0.37,-15.45 6.39,-19.28 q 2.73,-1.55 11.17,-1.62 17.21,-0.15 51.72,-0.99 2.02,-0.05 7.74,0.15 a 0.36,0.36 0 0 1 0.28,0.58 z"
     id="path86" />
  <path
     fill="#e8f7fc"
     d="m 405.22,437.95 a 0.46,0.46 0 0 1 -0.82,0.11 q -3.26,-5.17 -8.43,-6.74 c -6.7,-2.03 -11.58,0.49 -16.09,5.13 a 1.86,1.88 20.9 0 1 -1.23,0.56 l -11.01,0.63 A 0.61,0.61 0 0 1 367,437.07 l -1.07,-18.67 a 0.51,0.51 0 0 1 0.51,-0.54 h 46.99 a 0.3,0.3 0 0 1 0.26,0.45 q -5.25,9.24 -8.47,19.64 z"
     id="path87" />
  <path
     fill="#e8f7fc"
     d="m 593.59,616.55 a 0.29,0.28 27 0 1 -0.17,-0.51 q 1.68,-1.23 3.16,-2.94 4.6,-5.32 9.71,-13.8 c 18.31,-30.42 25.79,-65.67 24.42,-101.05 q -1.65,-42.75 -19.94,-79.91 a 0.35,0.36 76.7 0 1 0.32,-0.51 h 46.89 a 0.36,0.35 2.2 0 1 0.36,0.38 q -4.03,61.42 -11.7,174.44 -0.75,11.15 -2.42,14.19 -2.98,5.43 -9.07,8.21 -3.28,1.5 -12.11,1.53 -18.31,0.08 -29.45,-0.03 z"
     id="path88" />
  <path
     fill="#cad5d9"
     d="m 402.86,441.04 a 2.95,2.96 39.2 0 1 0.19,1.93 q -1.02,4.32 -2.85,10.47 -0.6,2.01 -2.84,3 -8.96,3.96 -15.35,-3.49 a 2.9,2.89 70.2 0 0 -2.16,-1.02 q -13.91,-0.29 -25.05,-1.56 c -6.22,-0.7 -7.05,-8.44 -0.22,-9.07 q 10.77,-1 25.21,-1.29 a 2.8,2.8 0 0 0 2.29,-1.27 c 5.37,-8.18 16.91,-6.04 20.78,2.3 z"
     id="path89" />
  <path
     fill="#e8f7fc"
     d="m 398.43,459.9 c -11.09,48.51 -5.11,101.36 22.19,143.75 q 5.4,8.38 10.17,12.52 a 0.24,0.24 0 0 1 -0.16,0.42 q -28.55,0.12 -33.83,-0.09 -12.1,-0.5 -16.98,-9.94 -1.73,-3.35 -2.5,-14.84 -8.61,-128.96 -9.12,-137.11 a 0.39,0.39 0 0 1 0.41,-0.42 l 10.16,0.59 a 1.8,1.75 67.7 0 1 1.1,0.48 c 0.82,0.79 2.1,2.14 3.16,2.85 q 6.85,4.58 14.9,1.37 a 0.37,0.37 0 0 1 0.5,0.42 z"
     id="path90" />
  <rect
     fill="#4987a9"
     x="119.94"
     y="566.21002"
     width="240.60001"
     height="2.78"
     rx="1.37"
     id="rect90" />
  <rect
     fill="#4987a9"
     x="666.07001"
     y="566.23999"
     width="345.48001"
     height="2.74"
     rx="1.34"
     id="rect91" />
  <rect
     fill="#4987a9"
     x="242.7493"
     y="573.5766"
     transform="rotate(-0.1)"
     width="2.3199999"
     height="45.82"
     rx="1.14"
     id="rect92" />
  <rect
     fill="#4987a9"
     x="770.96826"
     y="574.59918"
     transform="rotate(-0.1)"
     width="3.04"
     height="45.860001"
     rx="1.5"
     id="rect93" />
  <rect
     fill="#4987a9"
     x="904.82001"
     y="573.03998"
     width="2.4200001"
     height="46.16"
     rx="1.1900001"
     id="rect94" />
  <path
     fill="#cad5d9"
     d="m 467.38,628.28 q -0.03,0.03 -0.07,0.06 a 0.04,0.22 44.2 0 1 -0.14,0.1 l -12.2,-0.05 a 0.7,0.7 0 0 1 -0.7,-0.7 c -0.03,-3.17 -0.59,-9.32 1.44,-11.31 2.03,-1.99 8.16,-1.31 11.34,-1.22 a 0.7,0.7 0 0 1 0.68,0.72 l -0.19,12.2 a 0.04,0.22 46.9 0 1 -0.1,0.14 q -0.03,0.03 -0.06,0.06 z"
     id="path94" />
  <rect
     fill="#cad5d9"
     x="470.64999"
     y="615.21002"
     width="82.580002"
     height="13.16"
     rx="0.75999999"
     id="rect95" />
  <path
     fill="#cad5d9"
     d="m 568.98,628.3 h -12.09 a 0.59,0.58 0 0 1 -0.59,-0.58 V 615.7 a 0.36,0.37 89.2 0 1 0.36,-0.36 q 4.87,-0.06 8.65,0.05 c 3.24,0.09 4.64,2.61 4.56,5.99 q -0.11,4.66 -0.12,6.16 a 0.77,0.77 0 0 1 -0.77,0.76 z"
     id="path95" />
  <path
     fill="#b0d5e7"
     d="m 416.02,635.53 a 0.14,0.14 0 0 1 -0.16,-0.21 l 10.46,-15.29 a 0.96,0.96 0 0 1 0.66,-0.42 q 5.8,-0.75 8.06,-0.04 7.7,2.43 15.38,1.74 a 0.76,0.76 0 0 1 0.84,0.76 l -0.03,5.63 a 0.84,0.84 0 0 1 -0.88,0.83 q -9.94,-0.53 -13.56,0.32 -8.89,2.1 -20.77,6.68 z"
     id="path96" />
  <path
     fill="#b0d5e7"
     d="m 608.32,635.71 q -11.93,-4.66 -20.87,-6.81 -3.63,-0.87 -13.64,-0.38 a 0.84,0.84 0 0 1 -0.88,-0.84 v -5.66 a 0.77,0.76 2.7 0 1 0.84,-0.76 q 7.73,0.73 15.49,-1.69 2.27,-0.7 8.1,0.08 a 0.96,0.97 77.2 0 1 0.67,0.42 l 10.45,15.43 a 0.14,0.14 0 0 1 -0.16,0.21 z"
     id="path97" />
  <rect
     fill="#4987a9"
     x="162.21001"
     y="623.14001"
     width="205.72"
     height="2.9000001"
     rx="1.4299999"
     id="rect97" />
  <rect
     fill="#4987a9"
     x="680.59003"
     y="623.15997"
     width="292.20001"
     height="2.9200001"
     rx="1.4400001"
     id="rect98" />
  <rect
     fill="#4987a9"
     x="772.07001"
     y="629.89001"
     width="2.96"
     height="60.18"
     rx="1.46"
     id="rect99" />
  <rect
     fill="#4987a9"
     x="903.69696"
     y="631.39026"
     transform="rotate(-0.1)"
     width="2.3199999"
     height="60.060001"
     rx="1.14"
     id="rect100" />
  <rect
     fill="#4987a9"
     x="245.01134"
     y="629.40143"
     transform="rotate(0.1)"
     width="2.26"
     height="60.099998"
     rx="1.11"
     id="rect101" />
  <path
     fill="#dbdbdb"
     d="m 512.09,631.19 q 33.75,0 68.91,0.11 c 5.66,0.02 8.48,0.93 14.26,2.74 17.22,5.39 62.33,23.34 52.76,48.95 -3.26,8.71 -13.54,16.51 -21.82,20.95 -19.43,10.4 -41.29,16.23 -63.43,19.59 q -24.09,3.65 -50.69,3.65 -26.6,-0.01 -50.69,-3.66 c -22.14,-3.37 -44,-9.2 -63.43,-19.61 -8.28,-4.44 -18.56,-12.24 -21.81,-20.95 -9.57,-25.61 35.55,-43.55 52.77,-48.94 5.78,-1.81 8.6,-2.72 14.26,-2.74 q 35.16,-0.1 68.91,-0.09 z"
     id="path101" />
  <path
     fill="#303332"
     d="m 412.72,673.72 a 99.35,31.12 0 0 1 99.35,-31.12 99.35,31.12 0 0 1 99.35,31.12 99.35,31.12 0 0 1 -99.35,31.12 99.35,31.12 0 0 1 -99.35,-31.12 z"
     id="path102" />
  <path
     fill="#b0d5e7"
     d="m 512.07,645.44 q 27.67,0 53.32,4.94 c 9.84,1.89 43.24,10.11 43.24,23.37 -0.01,13.27 -33.41,21.47 -43.24,23.36 q -25.66,4.93 -53.32,4.93 -27.67,-0.01 -53.32,-4.94 c -9.84,-1.9 -43.24,-10.11 -43.24,-23.38 0.01,-13.26 33.41,-21.47 43.25,-23.36 q 25.65,-4.93 53.31,-4.92 z"
     id="path103" />
  <path
     fill="#e8f7fc"
     d="m 512.06,758.97 c -36.86,0 -71.27,-4.36 -104.51,-18.45 Q 393,734.35 382.36,725.24 c -5.64,-4.83 -7.35,-11.15 -7.68,-19.29 q -0.41,-9.84 -0.13,-18.43 a 0.31,0.3 30.7 0 1 0.57,-0.14 c 7.23,12.16 22.54,20.74 35.51,25.76 31.91,12.35 66.39,16.74 101.44,16.75 35.04,0 69.53,-4.38 101.44,-16.72 12.97,-5.02 28.28,-13.6 35.52,-25.76 a 0.3,0.31 59.3 0 1 0.57,0.14 q 0.27,8.59 -0.14,18.43 c -0.33,8.14 -2.04,14.46 -7.68,19.29 q -10.64,9.11 -25.2,15.27 c -33.24,14.09 -67.65,18.44 -104.52,18.43 z"
     id="path104" />
  <rect
     fill="#4987a9"
     x="117.78"
     y="694.95001"
     width="238.72"
     height="2.1600001"
     rx="1.0700001"
     id="rect104" />
  <rect
     fill="#4987a9"
     x="666.19"
     y="694.90997"
     width="332.78"
     height="2.26"
     rx="1.11"
     id="rect105" />
  <rect
     fill="#4987a9"
     x="243.99001"
     y="701.87"
     width="1.9"
     height="64.720001"
     rx="0.93000001"
     id="rect106" />
  <rect
     fill="#4987a9"
     x="904.91998"
     y="701.76001"
     width="2.2"
     height="65.419998"
     rx="1.08"
     id="rect107" />
  <path
     fill="#303332"
     d="m 785.23,815.55 -0.39,3.26 c -1.63333,12.71333 -3.43333,26.27 -5.4,40.67 -0.56,4.16 -4.24,5.81 -8.06,7.14 -11.28,3.91 -22.66,5.01 -35.43,5.48 -15.36,0.56667 -29.91333,-0.79667 -43.66,-4.09 -5.01,-1.2 -12.08,-3.01 -12.84,-8.49 -1.93333,-13.78 -3.83333,-27.52667 -5.7,-41.24 l -0.38,-2.25 -5.39,-39.21 c -0.46,-3.57 0.0743,0.0726 -0.46,-3.57 -2.7,-19.28 -4.52,-32.20333 -5.46,-38.77 -0.6,-4.18 1.14,-5.69 4.91,-7.74 2.94667,-1.6 7.67333,-3.04 14.18,-4.32 6.21333,-1.22 12.25,-2.10667 18.11,-2.66 24.17333,-2.28667 47.66333,-1.86667 70.47,1.26 8.44,1.16 16.84,2.7 23.88,6.84 2.47333,1.44667 3.51333,3.55667 3.12,6.33 -0.3566,1.66195 -4.93784,37.60422 -11.5,81.36 z"
     id="path107"
  />
  <path
     fill="#a6876e"
     d="m 729.37,721.24 c 14.87,0.01 28.95,0.8 42.34,3.06 3.8,0.64 22.36,4.26 22.36,8.47 0,4.21 -18.57,7.8 -22.37,8.43 -13.39,2.24 -27.48,3 -42.34,2.99 -14.87,-0.01 -28.96,-0.79 -42.34,-3.05 -3.8,-0.64 -22.37,-4.26 -22.36,-8.47 0,-4.21 18.57,-7.8 22.37,-8.44 13.39,-2.24 27.47,-3 42.34,-2.99 z"
     id="path108" />
  <path
     fill="#e8f7fc"
     d="m 512.05,761.72 c 40.54,0.01 80.55,-5.15 116.53,-23.82 q 4.84,-2.51 8.71,-5.54 a 0.21,0.21 0 0 1 0.33,0.21 q -3.48,14.17 -10.39,26.9 -27,49.78 -81.58,64.66 -15.67,4.27 -33.62,4.27 -17.95,-0.01 -33.61,-4.29 -54.58,-14.91 -81.55,-64.71 -6.9,-12.73 -10.37,-26.91 a 0.21,0.21 0 0 1 0.33,-0.21 q 3.87,3.04 8.71,5.55 c 35.96,18.69 75.97,23.88 116.51,23.89 z"
     id="path109" />
  <path
     fill="#d1ae92"
     d="m 729.35,747.04 c 17.81,0 35.43,-1.25 51.93,-4.85 q 6.12,-1.34 11.44,-4.19 a 0.22,0.22 0 0 1 0.32,0.22 q -8.25,61.43 -16.49,119.8 -0.34,2.43 -1.29,3.45 -1.2,1.3 -6.51,3.02 c -12.09,3.91 -26.05,4.73 -39.36,4.73 -13.31,0 -27.28,-0.8 -39.37,-4.71 q -5.31,-1.71 -6.51,-3.01 -0.95,-1.02 -1.29,-3.45 -8.28,-58.37 -16.56,-119.79 a 0.22,0.22 0 0 1 0.32,-0.22 q 5.32,2.84 11.45,4.18 c 16.49,3.59 34.11,4.83 51.92,4.82 z"
     id="path110" />
  <path
     fill="#e8f7fc"
     d="m 512.06,831.28 c 20.96,0 41.44,-4.81 60.17,-13.97 a 0.39,0.39 0 0 1 0.56,0.28 q 9.13,56.81 13.3,82.32 0.82,5.02 0.47,6.64 c -2.41,11.21 -25.79,17.01 -35.32,18.95 q -19.93,4.04 -39.18,4.04 -19.25,0 -39.18,-4.05 c -9.53,-1.93 -32.91,-7.73 -35.32,-18.94 q -0.35,-1.62 0.47,-6.64 4.17,-25.51 13.31,-82.32 a 0.39,0.39 0 0 1 0.55,-0.29 c 18.73,9.16 39.21,13.98 60.17,13.98 z"
     id="path124" />
  <path
     fill="#a0a7a5"
     d="m 288.52,1024 h -0.75 q 0.08,-0.76 -0.39,-0.95 a 1.46,1.5 21.1 0 1 -0.82,-1.91 q 8.4,-22.47 18.01,-47.76 a 0.55,0.55 0 0 0 -0.51,-0.75 q -93.61,-1.16 -188.79,0.19 a 2.29,2.29 0 0 0 -1.81,0.94 L 80.4,1019.6 a 1.38,1.39 37.5 0 1 -1.99,0.27 l -0.34,-0.28 a 1.14,1.13 37.5 0 1 -0.21,-1.55 l 32.38,-44.9 a 0.4,0.4 0 0 0 -0.32,-0.63 H 52.97 a 0.92,0.93 88.7 0 1 -0.93,-0.88 q -0.05,-1.26 0.67,-1.41 1.82,-0.39 2.59,-0.38 33.31,0.27 56.92,-0.16 a 0.98,0.99 17.6 0 0 0.78,-0.41 l 58.12,-80.59 a 0.51,0.52 16.6 0 0 -0.44,-0.82 q -6.93,0.4 -9.43,0.39 -56.58,-0.28 -98.96,-0.32 a 1.37,1.37 0 0 1 -1.37,-1.45 l 0.01,-0.1 a 1.58,1.58 0 0 1 1.58,-1.47 c 33.36,0.07 64.66,0.31 94.44,-0.21 q 6.97,-0.12 14.93,0.48 a 2.78,2.77 20 0 0 2.47,-1.15 l 40.68,-56.44 a 1.33,1.33 0 0 1 1.9,-0.27 l 0.06,0.04 a 1.48,1.48 0 0 1 0.29,2.02 l -39.49,55.01 a 0.36,0.36 0 0 0 0.3,0.57 h 158.9 a 0.86,0.85 10.4 0 0 0.8,-0.55 l 21.86,-57.87 a 1.87,1.85 8.3 0 1 1.62,-1.2 h 0.05 a 1.23,1.23 0 0 1 1.1,1.66 l -21.22,57.4 a 0.46,0.46 0 0 0 0.43,0.61 h 78.19 a 1.29,1.28 2.8 0 1 1.28,1.41 l -0.06,0.55 a 1.16,1.15 2.7 0 1 -1.15,1.04 H 340.9 a 1.92,1.93 10.3 0 0 -1.8,1.25 l -29.82,79.88 a 0.73,0.72 10.3 0 0 0.68,0.98 h 200.42 a 0.66,0.65 0 0 0 0.66,-0.65 v -27.39 a 0.75,0.76 0 0 1 0.75,-0.76 h 0.46 a 0.87,0.87 0 0 1 0.87,0.87 v 26.93 a 1.03,1.03 0 0 0 1.03,1.03 h 183.36 a 0.63,0.62 79.6 0 0 0.58,-0.85 l -31.05,-80.92 a 0.94,0.95 78.6 0 0 -0.91,-0.6 c -3.21,0.09 -5.82,0.42 -8.56,0.39 q -28.86,-0.24 -57.4,-0.18 a 1.42,1.42 0 0 1 -1.43,-1.5 l 0.01,-0.1 a 1.55,1.54 1.5 0 1 1.56,-1.47 q 29.9,0.36 58.94,-0.16 2.36,-0.04 5.94,0.36 a 0.45,0.45 0 0 0 0.47,-0.62 c -1.44,-3.4 -3.19,-7.04 -4.3,-10.16 q -8.1,-22.75 -17.58,-46.41 a 0.97,0.97 0 0 1 0.97,-1.33 l 0.47,0.05 a 1.95,1.96 82.4 0 1 1.63,1.24 l 21.74,56.66 a 0.88,0.87 80.2 0 0 0.78,0.56 q 4.96,0.18 7.37,0.02 10.7,-0.68 21.34,-0.43 8.4,0.2 18.84,0.2 61.72,-0.01 123.58,0.18 c 14.6,0.05 29.71,-0.57 43.98,0.11 a 0.25,0.26 72.9 0 0 0.22,-0.41 l -42.62,-56.8 a 1.37,1.37 0 0 1 0.32,-1.95 l 0.07,-0.05 a 1.44,1.44 0 0 1 1.97,0.32 l 43.65,58.09 a 1.6,1.6 0 0 0 1.28,0.64 h 109.77 a 1.54,1.54 0 0 1 1.52,1.29 l 0.08,0.51 A 1,1 0 0 1 999.75,888 H 891.54 a 0.42,0.42 0 0 0 -0.34,0.68 l 60.39,80.31 a 2.37,2.37 0 0 0 1.89,0.94 h 64.38 a 0.9,0.9 0 0 1 0.84,0.58 l 0.27,0.7 a 0.9,0.9 0 0 1 -0.84,1.22 h -63.32 a 0.33,0.33 0 0 0 -0.27,0.53 l 29.25,38.89 a 0.97,0.96 56 0 1 -0.27,1.4 l -0.37,0.23 a 1.59,1.58 55.6 0 1 -2.09,-0.4 l -30.04,-39.81 a 1.5,1.5 0 0 0 -1.2,-0.6 q -14.08,0.01 -33.04,-0.23 c -37.13,-0.47 -73.55,-0.31 -144.9,-0.33 -24.38,-0.01 -46.16,0.49 -68.75,0.55 a 0.36,0.35 79.7 0 0 -0.33,0.48 l 18.56,48.36 a 1.08,1.09 69 0 1 -0.63,1.4 l -0.62,0.24 a 1.22,1.21 68.8 0 1 -1.57,-0.7 l -18.67,-48.67 a 1.82,1.81 79.4 0 0 -1.69,-1.16 c -14.35,0.1 -27.87,-0.42 -42.29,-0.45 q -72.81,-0.14 -141.78,0.05 a 0.96,0.95 0 0 0 -0.96,0.95 v 49.01 a 0.97,0.96 86.7 0 1 -0.85,0.96 l -0.39,0.04 a 0.79,0.78 86.5 0 1 -0.88,-0.78 v -49.35 a 0.73,0.73 0 0 0 -0.69,-0.73 q -5.78,-0.3 -11.09,-0.29 -32.95,0.1 -126.89,0.13 c -18.31,0 -42.15,0.52 -63.44,0.48 a 1.44,1.44 0 0 0 -1.35,0.94 z"
     id="path126" />
  <path
     fill="#dbdbdb"
     d="m 116.67,969.67 a 0.13,0.13 0 0 1 -0.1,-0.21 l 58.24,-80.75 a 1.62,1.64 18.1 0 1 1.32,-0.68 h 160.02 a 0.49,0.49 0 0 1 0.46,0.65 c -1.79,5.21 -5.33,12.79 -7.86,19.63 q -8.33,22.49 -22.68,60.79 a 1.11,1.09 9.6 0 1 -1.02,0.71 q -91.98,0.77 -188.38,-0.14 z"
     id="path127" />
  <path
     fill="#dbdbdb"
     d="m 948.1,969.31 a 0.32,0.32 0 0 1 -0.26,0.51 c -82.94,0.37 -169.69,0.59 -245.75,-0.02 a 0.99,0.99 0 0 1 -0.91,-0.63 l -30.96,-80.7 a 0.42,0.42 0 0 1 0.32,-0.57 q 1.29,-0.23 4.21,-0.2 c 4.6,0.04 12.97,0.84 19.02,0.7 32.16,-0.71 66.97,-0.15 98.56,-0.34 q 36.78,-0.22 81.48,0.08 c 3.4,0.03 7.79,-0.25 12.19,-0.45 a 1.36,1.33 69.9 0 1 1.13,0.54 z"
     id="path128" />
</svg>
