<?xml version="1.0" encoding="UTF-8" standalone="no"?>
<!-- Created with Inkscape (http://www.inkscape.org/) -->

<svg
   width="74.313499mm"
   height="68.430984mm"
   viewBox="0 0 74.313499 68.430984"
   version="1.1"
   id="svg1"
   xmlns:inkscape="http://www.inkscape.org/namespaces/inkscape"
   xmlns:sodipodi="http://sodipodi.sourceforge.net/DTD/sodipodi-0.dtd"
   xmlns="http://www.w3.org/2000/svg"
   xmlns:svg="http://www.w3.org/2000/svg">
  <sodipodi:namedview
     id="namedview1"
     pagecolor="#ffffff"
     bordercolor="#666666"
     borderopacity="1.0"
     inkscape:showpageshadow="2"
     inkscape:pageopacity="0.0"
     inkscape:pagecheckerboard="0"
     inkscape:deskcolor="#d1d1d1"
     inkscape:document-units="mm" />
  <defs
     id="defs1" />
  <g
     inkscape:label="Layer 1"
     inkscape:groupmode="layer"
     id="layer1"
     transform="translate(-64.250391,-129.42155)">
    <path
       id="path83"
       style="fill:#303332;fill-opacity:1;stroke-width:0.264583"
       d="m 64.359379,129.42156 c -0.0227,0.20997 -0.05057,0.41824 -0.05168,0.63562 -0.01235,2.20133 -0.03112,4.4827 -0.05581,6.84454 -0.03175,3.04006 0.426107,5.09081 2.640666,7.04608 a 0.80962499,0.81227082 11.7 0 1 0.238228,0.36225 c 0.194028,0.60149 0.355445,1.12358 0.484208,1.56632 1.079498,3.69621 2.61136,6.83412 4.810043,10.25519 0.126998,0.11288 0.261751,0.32219 0.404626,0.62735 2.651119,3.511 5.924215,6.66448 9.715686,8.94519 0.693206,0.41451 1.382973,0.86718 2.069124,1.35754 0.06703,0.32808 0.03872,0.53441 -0.08475,0.61908 -1.21179,7.45241 -2.399139,14.89534 -3.56154,22.32835 -0.167568,1.06715 0.0804,1.98314 0.743624,2.74867 1.222373,1.41816 2.936733,2.16167 4.746481,2.79932 2.652883,0.93484 5.777542,1.59929 9.374104,1.99264 6.532551,0.71438 13.697481,0.18248 19.888711,-1.78335 1.78858,-0.56886 3.96098,-1.44994 5.26273,-2.86546 1.04511,-1.13506 1.01338,-2.2307 0.74879,-3.82613 -1.17298,-7.09963 -2.32495,-14.21675 -3.4556,-21.35166 -0.0741,-0.14464 -0.10242,-0.38964 -0.0847,-0.73536 0.80609,-0.5274 1.60447,-1.0337 2.39468,-1.51877 1.06716,-0.65617 1.85629,-1.17662 2.36782,-1.56115 2.56998,-1.92968 4.87228,-4.27639 6.90604,-7.04039 l 0.62942,-0.87333 c 2.44297,-3.72533 4.12955,-7.54601 5.05912,-11.46184 a 1.3731875,1.36525 77.4 0 1 0.47336,-0.75137 c 2.26216,-1.83357 2.59562,-4.53232 2.53472,-7.34219 -0.0407,-1.95615 -0.0628,-4.00668 -0.0661,-6.15156 -5.2e-4,-0.30242 -0.0315,-0.58459 -0.0646,-0.86558 h -11.48043 c 1e-5,0.003 0.001,0.005 0.001,0.008 -0.003,3.511 -8.83928,5.68095 -11.44013,6.18101 -4.52612,0.8696 -9.22876,1.30432 -14.10766,1.30432 -4.880682,-0.002 -9.583308,-0.43806 -14.107675,-1.30742 -2.603494,-0.50271 -11.440645,-2.67465 -11.440645,-6.18567 v -5.1e-4 z" />
    <path
       id="path101"
       style="fill:#dfdfdf;fill-opacity:1;stroke-width:0.264583"
       d="m 65.12419,129.42156 c -0.09341,0.78171 -0.0036,1.59756 0.313159,2.44533 0.859895,2.3045 3.579445,4.36806 5.770191,5.54281 5.140844,2.75431 10.925092,4.29668 16.782955,5.18831 4.2492,0.64358 8.719648,0.96642 13.411585,0.96842 4.69193,0 9.16239,-0.3215 13.41158,-0.96532 5.85787,-0.88898 11.6416,-2.432 16.78244,-5.18366 2.19075,-1.17475 4.91074,-3.23829 5.77329,-5.54281 0.31785,-0.85057 0.40752,-1.66895 0.31265,-2.45308 h -10.73527 c 1e-5,0.003 5.2e-4,0.005 5.2e-4,0.008 -0.003,3.511 -8.83928,5.68095 -11.44013,6.18101 -4.52612,0.8696 -9.22876,1.30432 -14.10766,1.30432 -4.880678,-0.002 -9.583304,-0.43806 -14.107671,-1.30742 -2.603494,-0.50271 -11.440645,-2.67465 -11.440645,-6.18567 v -5.1e-4 z" />
    <path
       id="path102"
       style="display:inline;fill:#303332;fill-opacity:1;stroke-width:0.264583"
       d="m 75.113245,129.42156 a 26.286354,8.2338332 0 0 0 0,5.1e-4 26.286354,8.2338332 0 0 0 26.286255,8.23361 26.286354,8.2338332 0 0 0 26.28625,-8.23361 26.286354,8.2338332 0 0 0 0,-5.1e-4 h -0.73898 c 1e-5,0.003 5.2e-4,0.005 5.2e-4,0.008 -0.003,3.511 -8.83928,5.68095 -11.44013,6.18101 -4.52612,0.8696 -9.22876,1.30432 -14.10766,1.30432 -4.880678,-0.002 -9.583304,-0.43806 -14.107671,-1.30742 -2.603494,-0.50271 -11.440645,-2.67465 -11.440645,-6.18567 v -5.1e-4 z" />
    <path
       fill="#e8f7fc"
       d="m 101.39673,151.97772 c -9.752545,0 -18.856857,-1.15359 -27.651607,-4.88156 q -3.849687,-1.63248 -6.664854,-4.04284 c -1.49225,-1.27794 -1.944687,-2.9501 -2.032,-5.10381 q -0.108479,-2.6035 -0.0344,-4.87627 a 0.08202083,0.079375 30.7 0 1 0.150813,-0.037 c 1.912937,3.21733 5.963708,5.48746 9.395354,6.81566 8.442854,3.26761 17.565687,4.42913 26.839334,4.43177 9.271,0 18.39648,-1.15887 26.83934,-4.42383 3.43164,-1.32821 7.48241,-3.59833 9.398,-6.81567 a 0.079375,0.08202083 59.3 0 1 0.15081,0.037 q 0.0714,2.27277 -0.037,4.87627 c -0.0873,2.15371 -0.53975,3.82587 -2.032,5.10381 q -2.81517,2.41035 -6.6675,4.04019 c -8.79475,3.72798 -17.89907,4.87891 -27.65425,4.87627 z"
       id="path104"
       style="stroke-width:0.264583" />
    <path
       fill="#e8f7fc"
       d="m 101.39408,152.70532 c 10.72621,0.003 21.31219,-1.3626 30.8319,-6.30237 q 1.28058,-0.66411 2.30452,-1.46579 a 0.0555625,0.0555625 0 0 1 0.0873,0.0556 q -0.92075,3.74914 -2.74902,7.11729 -7.14375,13.17096 -21.58471,17.10796 -4.14602,1.12977 -8.89529,1.12977 -4.749271,-0.003 -8.892646,-1.13506 -14.440958,-3.94494 -21.576771,-17.12119 -1.825625,-3.36815 -2.743729,-7.11994 a 0.0555625,0.0555625 0 0 1 0.08731,-0.0556 q 1.023937,0.80433 2.30452,1.46844 c 9.514417,4.94506 20.100396,6.31825 30.826606,6.32089 z"
       id="path109"
       style="stroke-width:0.264583" />
    <path
       fill="#e8f7fc"
       d="m 101.39673,171.10974 c 5.54566,0 10.96433,-1.27265 15.91998,-3.69623 a 0.1031875,0.1031875 0 0 1 0.14816,0.0741 q 2.41565,15.03098 3.51896,21.7805 0.21696,1.32821 0.12436,1.75684 c -0.63765,2.96597 -6.82361,4.50056 -9.34509,5.01385 q -5.27314,1.06892 -10.36637,1.06892 -5.093232,0 -10.366378,-1.07157 c -2.521479,-0.51064 -8.707437,-2.04523 -9.345083,-5.0112 q -0.0926,-0.42863 0.124354,-1.75684 1.103313,-6.74952 3.521604,-21.7805 a 0.1031875,0.1031875 0 0 1 0.145521,-0.0767 c 4.955646,2.42359 10.374312,3.69888 15.919982,3.69888 z"
       id="path124"
       style="stroke-width:0.264583" />
    <rect
       style="display:none;fill:#303332;fill-opacity:1;stroke-width:1.56104"
       id="rect5"
       width="121.91432"
       height="92.455063"
       x="45.702045"
       y="36.966751" />
  </g>
</svg>
